<?xml version="1.0" standalone="no"?>
<!DOCTYPE svg PUBLIC "-//W3C//DTD SVG 20010904//EN"
 "http://www.w3.org/TR/2001/REC-SVG-20010904/DTD/svg10.dtd">
<svg version="1.0" xmlns="http://www.w3.org/2000/svg"
 width="800.000000pt" height="804.000000pt" viewBox="0 0 800.000000 804.000000"
 preserveAspectRatio="xMidYMid meet">

<g transform="translate(0.000000,804.000000) scale(0.100000,-0.100000)"
fill="#000000" stroke="none">
<path d="M3505 6649 c-782 -63 -1373 -294 -1521 -594 l-35 -72 0 -209 c0 -115
5 -224 10 -242 6 -19 24 -58 41 -88 27 -48 30 -62 30 -140 0 -77 -3 -94 -32
-153 l-33 -66 0 -220 0 -220 34 -68 c19 -41 57 -93 92 -129 32 -33 59 -62 59
-65 0 -2 -14 -18 -30 -35 -44 -43 -84 -106 -106 -163 -16 -43 -19 -78 -19
-255 0 -202 0 -206 27 -263 15 -32 36 -71 48 -87 25 -35 25 -60 1 -91 -34 -45
-60 -106 -72 -173 -16 -96 -7 -377 15 -435 11 -30 16 -76 16 -149 0 -98 -2
-109 -32 -171 l-33 -66 -3 -197 c-3 -159 -1 -207 12 -252 66 -227 390 -430
878 -550 304 -75 556 -105 948 -113 392 -8 677 15 995 78 354 70 637 180 824
319 95 71 145 127 185 210 30 63 31 70 34 215 3 135 5 154 27 195 38 73 48
151 43 342 -4 131 -9 182 -21 212 -10 23 -17 65 -17 104 0 55 4 70 27 100 15
20 37 61 50 91 21 52 23 71 23 257 0 227 -8 269 -65 349 -28 40 -35 59 -35 96
0 43 4 51 60 109 105 108 130 188 130 410 0 231 -27 309 -147 428 -40 40 -73
75 -73 79 0 3 11 30 25 59 40 85 47 141 43 334 l-3 178 -42 83 -42 84 -3 140
c-3 127 -6 145 -29 196 -67 142 -266 289 -529 392 -258 101 -652 181 -1010
207 -167 11 -598 11 -745 -1z m923 -83 c561 -64 1009 -216 1207 -411 72 -71
105 -135 112 -215 6 -58 5 -61 -57 -165 -73 -124 -123 -171 -254 -244 -382
-211 -987 -323 -1661 -308 -634 14 -1133 125 -1485 331 -100 58 -216 169 -249
238 -50 105 -20 220 85 323 248 244 750 406 1434 465 160 13 701 4 868 -14z
m-2185 -1064 c619 -385 2009 -468 2897 -172 256 85 434 182 553 301 l60 60 -5
-75 c-4 -63 -11 -84 -39 -132 -189 -313 -962 -544 -1829 -544 -768 0 -1506
195 -1757 465 -73 78 -103 142 -103 221 l0 61 69 -66 c38 -36 107 -90 154
-119z m3552 -120 c-68 -125 -107 -173 -180 -223 -243 -166 -628 -284 -1125
-346 -208 -25 -831 -26 -1040 0 -506 62 -880 175 -1125 338 -41 28 -75 52 -75
54 0 3 37 -15 83 -39 484 -254 1369 -360 2167 -260 543 68 970 225 1181 434
69 68 93 105 135 205 6 15 9 5 12 -38 3 -51 -1 -66 -33 -125z m-3495 -297
c253 -165 652 -282 1165 -342 190 -22 776 -25 960 -5 441 48 784 132 1041 256
137 66 219 120 304 202 l66 63 -3 -65 c-4 -91 -33 -145 -122 -234 -91 -90
-194 -153 -362 -221 -281 -114 -643 -190 -1056 -220 -198 -14 -649 -6 -833 15
-694 81 -1201 287 -1332 541 -14 25 -23 67 -26 113 l-5 73 64 -63 c35 -35 98
-86 139 -113z m-137 -173 c209 -214 651 -372 1257 -448 175 -21 716 -30 918
-14 552 43 1005 165 1291 347 l55 35 -18 -28 c-33 -52 -60 -76 -141 -129 -251
-162 -609 -269 -1115 -331 -208 -26 -800 -26 -1015 -1 -420 50 -736 132 -984
254 -267 131 -399 286 -376 439 l6 45 35 -58 c19 -32 59 -82 87 -111z m3788
-167 c45 -94 41 -140 -22 -250 -73 -128 -89 -147 -176 -205 -436 -291 -1341
-430 -2178 -335 -71 9 -164 22 -205 30 l-75 14 70 -5 c39 -3 86 -8 105 -11 87
-12 636 -15 785 -4 565 41 1046 173 1330 364 93 63 182 159 218 236 29 61 32
76 36 191 l3 125 41 -45 c22 -25 53 -72 68 -105z m-3722 -125 c507 -338 1637
-466 2548 -289 160 31 384 93 493 136 97 39 268 126 325 167 28 20 78 64 113
98 l62 62 0 -49 c0 -71 -15 -115 -61 -185 -148 -221 -612 -404 -1224 -484
-511 -67 -1146 -36 -1610 80 -540 134 -845 348 -845 593 l0 45 68 -65 c37 -37
96 -85 131 -109z m3740 -369 c-30 -108 -158 -224 -350 -319 -247 -122 -572
-208 -979 -259 -184 -22 -830 -26 -1005 -5 -416 50 -789 145 -1020 259 -156
78 -295 199 -340 295 -50 107 -50 107 208 -22 367 -184 621 -256 1107 -317
207 -25 840 -26 1050 0 631 77 1079 238 1295 466 l40 42 3 -48 c2 -26 -2 -68
-9 -92z m-3737 -102 c127 -217 521 -406 1048 -503 602 -111 1344 -91 1904 50
169 42 427 137 494 180 58 38 -9 -51 -76 -99 -459 -338 -1539 -479 -2452 -322
-455 79 -827 233 -989 411 -119 131 -125 252 -18 388 l31 39 16 -50 c9 -27 28
-69 42 -94z m1051 -146 c-7 -2 -21 -2 -30 0 -10 3 -4 5 12 5 17 0 24 -2 18 -5z
m-1048 -293 c270 -185 703 -314 1220 -364 959 -93 1924 99 2286 456 l61 60 -4
-68 c-5 -92 -36 -154 -115 -230 -214 -209 -675 -364 -1278 -430 -198 -22 -698
-25 -885 -6 -548 56 -967 175 -1226 347 -150 100 -224 206 -224 322 l0 61 58
-57 c31 -31 79 -72 107 -91z m3660 -30 c0 -61 -3 -71 -54 -155 -65 -109 -96
-143 -183 -201 -230 -153 -635 -274 -1113 -331 -214 -25 -806 -25 -1020 0
-300 36 -560 91 -768 163 -106 37 -287 121 -322 149 -11 9 3 5 31 -9 138 -67
450 -155 694 -196 482 -79 1064 -79 1545 1 377 62 707 175 906 310 140 94 242
226 256 330 5 35 7 39 17 23 6 -11 11 -48 11 -84z m-3673 -296 c210 -222 693
-391 1318 -461 218 -24 772 -24 990 0 617 69 1088 233 1312 457 l58 58 0 -52
c0 -72 -22 -131 -76 -199 -118 -151 -403 -292 -767 -381 -493 -121 -1123 -149
-1652 -75 -637 89 -1102 294 -1210 531 -19 43 -42 178 -29 178 1 0 27 -25 56
-56z m-126 -23 c-11 -17 26 -127 58 -176 176 -266 659 -460 1346 -541 184 -21
683 -30 892 -15 142 10 366 38 470 58 18 3 30 3 27 -1 -8 -9 -330 -62 -474
-78 -188 -21 -819 -17 -1010 5 -399 48 -708 129 -960 252 -244 120 -379 263
-378 400 0 47 16 105 28 105 4 0 4 -4 1 -9z m159 -468 c287 -192 755 -319
1338 -364 201 -15 681 -7 867 16 406 48 731 131 976 249 134 64 212 116 301
199 l66 62 -5 -70 c-6 -85 -32 -139 -101 -212 -196 -208 -655 -369 -1247 -439
-184 -21 -666 -30 -856 -15 -663 53 -1179 215 -1410 443 -81 79 -114 146 -114
230 l0 62 63 -60 c34 -34 89 -79 122 -101z m3514 -188 c-48 -83 -75 -117 -117
-150 -166 -130 -462 -247 -802 -315 -907 -183 -2027 -59 -2525 280 -63 43
-189 160 -173 160 4 0 37 -23 74 -51 252 -190 743 -332 1318 -379 171 -15 605
-14 781 0 553 44 1012 173 1290 360 70 47 205 180 205 202 0 6 3 9 6 6 3 -4
-23 -54 -57 -113z m-842 -11 c-3 -3 -12 -4 -19 -1 -8 3 -5 6 6 6 11 1 17 -2
13 -5z m-2651 -224 c248 -172 652 -295 1172 -357 214 -26 834 -25 1047 1 612
74 1066 235 1279 453 l56 57 0 -62 c0 -109 -54 -196 -182 -293 -229 -172 -633
-300 -1153 -365 -202 -25 -724 -30 -945 -10 -613 58 -1090 211 -1319 422 -89
83 -123 146 -129 242 l-5 74 52 -55 c29 -31 86 -79 127 -107z m-119 -184 c264
-267 848 -442 1593 -476 710 -32 1411 90 1810 315 33 19 60 32 60 30 0 -11
-136 -99 -215 -138 -300 -150 -690 -242 -1180 -278 -199 -14 -648 -6 -835 15
-491 57 -867 169 -1117 331 -146 96 -225 194 -240 300 -10 77 4 84 37 19 16
-33 55 -85 87 -118z m72 -256 c573 -382 1920 -487 2832 -221 302 88 508 195
648 333 l63 63 -4 -70 c-8 -116 -61 -199 -192 -296 -337 -251 -1045 -404
-1791 -386 -554 14 -1053 115 -1385 282 -245 123 -356 244 -367 402 l-5 68 68
-66 c38 -37 98 -85 133 -109z"/>
</g>
</svg>
