<?xml version="1.0" standalone="no"?>
<!DOCTYPE svg PUBLIC "-//W3C//DTD SVG 20010904//EN"
 "http://www.w3.org/TR/2001/REC-SVG-20010904/DTD/svg10.dtd">
<svg version="1.0" xmlns="http://www.w3.org/2000/svg"
 width="1280.000000pt" height="1088.000000pt" viewBox="0 0 1280.000000 1088.000000"
 preserveAspectRatio="xMidYMid meet">
<g transform="translate(0.000000,1088.000000) scale(0.100000,-0.100000)"
fill="#000000" stroke="none">
<path d="M3598 10841 c-148 -58 -297 -153 -455 -290 -146 -127 -257 -274 -344
-455 -42 -88 -56 -129 -74 -231 -4 -21 -109 -125 -353 -354 -138 -129 -283
-300 -410 -485 -40 -58 -71 -106 -69 -106 3 0 29 33 59 73 57 77 231 284 256
304 12 10 21 7 48 -17 93 -82 264 -174 414 -224 296 -98 738 -98 931 0 208
105 -11 295 -441 383 -288 59 -526 49 -767 -31 -52 -17 -97 -28 -100 -24 -14
14 308 318 458 432 30 23 71 45 92 48 128 23 356 129 490 229 104 77 274 247
355 357 85 114 144 234 150 305 4 53 3 57 -32 90 -49 45 -81 45 -208 -4z"/>
<path d="M8996 10846 c-43 -40 -46 -73 -16 -162 74 -214 372 -538 625 -679 97
-55 213 -102 314 -129 87 -23 97 -29 199 -113 129 -106 400 -369 390 -379 -4
-3 -49 7 -101 24 -245 81 -466 90 -767 31 -363 -72 -597 -233 -496 -342 129
-140 681 -154 1027 -27 141 53 330 161 384 220 10 11 21 20 25 20 8 0 156
-169 229 -262 29 -38 55 -68 58 -68 3 0 -17 30 -43 68 -167 236 -264 342 -592
650 -83 79 -154 153 -156 165 -21 107 -33 145 -76 234 -125 263 -336 486 -619
657 -92 55 -270 126 -317 126 -23 0 -43 -10 -68 -34z"/>
<path d="M2214 10821 c-84 -52 -151 -205 -201 -456 -13 -69 -17 -141 -18 -305
0 -202 2 -221 28 -325 48 -188 126 -355 166 -355 42 0 140 175 200 355 59 179
75 300 68 530 -8 272 -49 447 -126 527 -45 47 -76 55 -117 29z"/>
<path d="M10514 10830 c-59 -24 -110 -126 -145 -290 -29 -134 -37 -428 -15
-565 29 -193 98 -382 189 -523 59 -91 77 -93 124 -13 67 113 122 302 143 500
25 234 -42 627 -136 786 -48 83 -112 125 -160 105z"/>
<path d="M1203 9868 c-60 -66 -78 -152 -77 -363 0 -188 22 -342 69 -495 76
-244 302 -582 363 -543 31 19 75 197 92 371 30 297 -88 744 -252 959 -69 91
-150 120 -195 71z"/>
<path d="M11435 9828 c-99 -102 -192 -311 -251 -567 -31 -131 -42 -362 -25
-493 20 -150 67 -296 98 -306 17 -5 86 61 141 136 187 254 281 563 282 920 0
128 -17 246 -42 297 -25 48 -61 75 -102 75 -36 0 -46 -6 -101 -62z"/>
<path d="M1839 8858 c-295 -373 -573 -1013 -645 -1488 -48 -312 -69 -521 -79
-788 -4 -95 -11 -174 -15 -177 -4 -3 -20 30 -35 73 -70 198 -203 401 -363 553
-212 202 -426 329 -554 329 -91 0 -121 -52 -94 -162 47 -182 261 -476 469
-645 172 -138 436 -263 558 -263 24 0 27 -4 33 -46 3 -26 6 -79 6 -118 0 -127
37 -460 75 -676 26 -148 23 -149 -61 -22 -79 119 -262 301 -384 380 -251 165
-534 270 -654 242 -46 -10 -96 -55 -96 -86 0 -12 19 -60 42 -106 36 -71 60
-101 172 -213 197 -196 377 -314 591 -388 131 -45 250 -70 352 -71 45 -1 85
-5 88 -8 4 -4 17 -46 30 -95 12 -48 82 -251 154 -450 125 -345 137 -383 126
-383 -2 0 -51 46 -107 103 -158 159 -310 257 -523 336 -343 128 -635 141 -673
32 -29 -84 64 -201 266 -335 106 -70 309 -172 412 -206 212 -71 501 -90 656
-45 20 6 39 -28 223 -389 111 -218 200 -400 196 -406 -3 -5 -44 16 -90 46
-154 100 -315 165 -501 203 -314 64 -587 50 -671 -34 -81 -81 -4 -183 222
-295 362 -180 775 -228 1080 -125 42 14 80 23 85 20 5 -3 48 -58 97 -123 110
-147 257 -324 390 -470 89 -97 115 -132 99 -132 -2 0 -41 18 -87 39 -101 47
-185 76 -299 103 -124 29 -425 36 -579 14 -391 -58 -488 -208 -216 -337 215
-103 598 -149 860 -105 158 27 326 88 431 156 20 12 25 11 57 -16 193 -161
644 -548 652 -559 5 -8 7 -16 5 -19 -3 -2 -50 7 -105 20 -132 32 -303 45 -440
33 -272 -23 -557 -114 -683 -216 -126 -103 -79 -192 133 -249 59 -16 105 -19
300 -18 198 0 244 3 332 22 226 49 452 154 588 274 l35 30 103 -64 c151 -96
395 -229 537 -294 69 -31 131 -62 138 -69 11 -10 -19 -13 -145 -18 -249 -9
-409 -51 -658 -172 -199 -96 -347 -215 -376 -302 -16 -49 3 -88 55 -116 37
-20 55 -22 201 -22 130 0 179 4 263 23 221 50 415 129 572 235 84 57 239 202
272 254 25 41 2 45 253 -41 161 -55 332 -105 534 -156 57 -15 45 -25 -66 -55
-241 -64 -502 -222 -702 -424 -180 -182 -217 -313 -102 -363 53 -22 86 -21
207 10 215 55 489 201 654 348 123 109 250 270 306 386 10 21 23 38 29 38 20
0 308 -60 343 -71 17 -6 32 -14 32 -18 0 -5 -24 -24 -52 -43 -29 -20 -75 -55
-101 -78 -46 -41 -151 -170 -175 -217 -39 -72 27 -155 111 -139 41 8 54 22 98
106 48 94 143 184 255 242 50 27 102 48 114 48 37 0 197 -90 258 -146 36 -32
73 -80 101 -130 57 -102 67 -112 108 -120 83 -16 150 66 112 139 -7 12 -41 59
-76 105 -64 81 -144 156 -216 201 -20 12 -37 27 -37 32 0 20 381 101 388 81 8
-24 104 -178 142 -227 186 -241 520 -455 837 -536 134 -34 148 -35 206 -10 51
22 73 62 63 114 -18 96 -168 270 -353 409 -180 135 -330 212 -513 262 -112 31
-126 41 -74 55 261 67 351 93 544 158 l225 75 14 -23 c9 -13 51 -61 95 -106
185 -192 436 -323 758 -395 84 -19 133 -23 263 -23 146 0 164 2 201 22 52 28
71 67 55 116 -29 87 -177 206 -376 302 -248 121 -407 162 -658 172 -125 5
-156 9 -145 18 7 7 65 36 128 64 149 68 363 183 522 283 l127 79 63 -51 c147
-119 335 -203 563 -252 140 -30 499 -33 620 -4 86 20 160 53 186 82 102 116
-123 269 -522 356 -90 19 -133 23 -319 23 -214 0 -271 -7 -412 -51 -52 -16 7
43 250 248 147 125 301 256 342 292 41 36 78 66 81 66 4 0 32 -15 64 -34 175
-106 487 -168 735 -145 231 20 406 61 529 124 255 128 153 274 -230 331 -144
21 -454 15 -568 -11 -96 -21 -243 -71 -304 -102 -70 -35 -97 -44 -97 -33 0 6
46 61 103 123 139 150 259 295 379 454 55 73 103 135 108 138 5 3 43 -6 85
-20 301 -101 717 -55 1070 120 129 64 194 110 235 167 40 55 39 91 -3 133 -56
56 -188 81 -377 71 -310 -15 -571 -94 -796 -241 -47 -31 -89 -53 -93 -50 -3 4
85 185 196 403 158 311 206 397 220 395 10 -1 50 -7 88 -13 144 -25 399 1 575
60 173 57 444 211 562 319 261 238 85 366 -350 255 -302 -76 -529 -200 -725
-396 -60 -59 -110 -108 -113 -108 -10 0 3 40 127 383 72 199 142 402 154 450
13 49 26 91 30 95 3 3 43 7 88 8 142 2 361 61 511 136 237 119 521 372 605
539 23 44 41 90 41 101 0 11 -15 35 -34 54 -35 35 -52 39 -146 34 -122 -6
-379 -115 -570 -241 -122 -81 -305 -262 -384 -381 -32 -49 -62 -90 -67 -94
-11 -7 -11 20 0 82 37 196 81 588 81 724 0 41 3 92 6 113 6 32 10 37 33 37
119 0 370 117 546 254 258 202 524 606 490 744 -12 50 -43 72 -101 72 -199 0
-592 -303 -786 -606 -42 -66 -104 -193 -133 -276 -15 -43 -31 -76 -35 -73 -4
3 -11 80 -14 172 -11 271 -35 510 -76 763 -82 504 -298 1026 -601 1452 -78
109 -112 142 -53 52 136 -212 209 -340 196 -348 -5 -3 -31 11 -58 30 -77 55
-200 119 -304 157 -413 152 -1040 110 -1040 -70 0 -107 231 -233 556 -303 140
-31 413 -38 544 -16 120 21 220 51 291 86 30 16 61 25 67 21 14 -9 110 -219
167 -366 81 -209 178 -536 163 -550 -3 -3 -54 43 -114 103 -209 208 -447 332
-776 406 -123 28 -281 35 -349 16 -76 -21 -102 -87 -64 -160 83 -161 463 -389
780 -466 97 -24 130 -28 285 -28 96 -1 196 3 222 7 55 11 49 20 77 -138 48
-276 64 -457 64 -755 -1 -315 -16 -508 -69 -845 -26 -170 -64 -317 -82 -323
-6 -2 -14 9 -17 25 -66 321 -187 543 -430 789 -156 158 -294 249 -395 261 -45
5 -51 3 -79 -25 -28 -27 -31 -37 -31 -92 0 -181 194 -535 411 -750 123 -121
285 -231 414 -280 33 -12 70 -26 83 -31 16 -6 22 -15 18 -27 -3 -9 -42 -152
-87 -317 -81 -299 -198 -623 -226 -633 -10 -3 -13 23 -13 110 0 261 -85 524
-252 779 -160 246 -327 389 -420 363 -128 -37 -90 -355 87 -720 76 -156 178
-297 297 -409 81 -76 218 -175 243 -175 7 0 18 -6 24 -14 21 -25 -243 -531
-406 -778 -71 -107 -101 -134 -90 -82 24 111 29 184 24 334 -4 140 -10 183
-35 280 -115 444 -376 800 -494 673 -46 -51 -53 -85 -53 -263 0 -134 5 -185
23 -272 50 -231 114 -392 221 -556 63 -95 194 -241 243 -270 15 -9 28 -23 28
-31 0 -29 -148 -209 -367 -447 -125 -135 -230 -241 -235 -236 -4 4 1 39 12 77
68 238 65 495 -10 790 -99 392 -272 556 -369 350 -55 -116 -78 -327 -61 -540
14 -177 30 -257 75 -392 43 -128 109 -257 181 -353 52 -68 53 -72 38 -95 -14
-21 -634 -537 -671 -558 -28 -17 -25 3 11 78 52 106 103 264 121 375 20 125
20 423 0 546 -26 159 -75 282 -127 319 -96 66 -207 -69 -274 -334 -91 -359
-64 -738 72 -1016 19 -39 34 -75 34 -81 0 -14 -206 -138 -371 -223 -146 -76
-381 -181 -404 -181 -23 0 -19 10 36 85 158 217 250 484 278 806 20 240 -28
409 -119 409 -43 0 -79 -21 -128 -74 -56 -61 -107 -141 -157 -251 -125 -269
-181 -550 -156 -792 6 -65 19 -145 28 -180 8 -34 13 -69 10 -77 -3 -8 -41 -25
-84 -40 -100 -33 -741 -181 -749 -173 -4 3 40 52 98 109 161 159 240 275 334
494 148 340 157 608 22 608 -161 0 -472 -383 -596 -734 -44 -127 -65 -239 -71
-395 l-6 -140 -270 -53 c-148 -30 -295 -54 -325 -54 -30 0 -176 24 -325 54
l-270 53 -6 150 c-6 169 -34 301 -94 450 -120 296 -384 623 -538 666 -148 41
-171 -187 -51 -509 90 -241 204 -423 368 -585 60 -59 106 -111 103 -114 -8 -8
-650 141 -750 174 -43 14 -81 31 -84 39 -3 7 2 42 11 76 76 297 21 679 -147
1013 -132 264 -278 360 -346 227 -34 -66 -44 -152 -38 -305 12 -316 107 -612
267 -835 63 -88 69 -102 45 -102 -22 0 -271 112 -405 181 -162 85 -370 211
-370 225 0 6 11 31 25 56 52 94 105 265 125 408 31 213 -1 522 -74 738 -83
243 -206 314 -290 169 -62 -107 -96 -297 -96 -537 0 -251 36 -430 126 -619 46
-98 50 -111 35 -111 -14 0 -645 521 -675 558 l-27 31 49 61 c59 72 149 245
187 354 133 392 98 966 -63 1027 -37 14 -101 -21 -141 -76 -50 -70 -107 -200
-140 -320 -84 -302 -91 -544 -25 -805 13 -52 24 -96 24 -97 0 -35 -410 401
-537 570 -40 54 -73 104 -73 111 0 6 13 19 29 29 44 26 138 123 202 210 138
184 219 385 269 661 25 136 27 338 5 413 -74 250 -326 19 -491 -451 -54 -155
-74 -255 -81 -416 -5 -132 2 -234 23 -337 4 -22 3 -33 -5 -33 -14 0 -133 181
-231 351 -91 157 -260 496 -260 520 0 12 16 25 48 39 110 49 305 231 410 383
107 155 222 428 256 607 29 153 17 254 -37 294 -25 18 -31 19 -73 8 -25 -7
-65 -25 -88 -41 -70 -48 -189 -182 -269 -302 -179 -269 -267 -534 -267 -807 0
-79 -3 -103 -12 -100 -28 10 -147 344 -228 638 -44 162 -82 303 -83 313 -2 14
17 25 83 50 304 116 589 400 760 759 56 119 80 203 80 283 0 50 -4 60 -31 87
-28 28 -34 30 -79 25 -184 -22 -534 -354 -687 -652 -57 -112 -105 -240 -122
-330 -7 -33 -15 -68 -17 -77 -30 -106 -113 310 -154 776 -16 179 -13 596 5
776 17 173 63 471 75 490 7 11 20 11 66 2 82 -17 294 -15 405 4 194 33 445
136 629 259 109 72 223 188 246 249 16 43 16 51 3 74 -31 55 -61 67 -182 70
-189 6 -418 -53 -652 -167 -149 -73 -262 -155 -383 -278 -51 -53 -96 -93 -99
-89 -16 16 102 400 189 615 50 123 121 274 140 298 8 10 22 6 61 -14 294 -148
787 -137 1170 27 200 86 277 194 193 268 -112 98 -451 127 -784 66 -163 -29
-374 -116 -517 -213 -45 -31 -61 -37 -63 -26 -4 16 73 151 174 308 35 53 61
97 59 97 -3 0 -23 -24 -46 -52z"/>
<path d="M514 8716 c-45 -20 -59 -63 -58 -181 2 -220 131 -555 302 -783 101
-135 260 -278 365 -328 38 -18 39 -18 53 1 19 26 19 245 -1 356 -50 287 -214
607 -415 810 -113 114 -185 151 -246 125z"/>
<path d="M12207 8716 c-92 -34 -218 -161 -333 -336 -173 -264 -250 -491 -261
-765 -6 -158 2 -201 40 -198 59 4 233 142 339 270 94 113 144 191 205 319 96
204 153 406 153 549 0 140 -49 195 -143 161z"/>
<path d="M2096 7259 c-64 -15 -223 -95 -326 -163 -248 -167 -415 -346 -528
-571 -39 -78 -82 -194 -82 -221 0 -54 248 5 448 105 135 68 255 156 380 280
265 262 384 516 266 570 -29 13 -102 13 -158 0z"/>
<path d="M10529 7241 c-29 -29 -31 -36 -26 -79 13 -110 110 -264 272 -431 199
-206 363 -315 591 -394 109 -38 225 -61 255 -52 25 8 24 30 -7 117 -106 294
-355 571 -680 755 -129 73 -216 105 -301 111 -70 4 -73 4 -104 -27z"/>
</g>
</svg>
