<?xml version="1.0" encoding="UTF-8" standalone="no"?>
<!DOCTYPE svg PUBLIC "-//W3C//DTD SVG 1.1//EN" "http://www.w3.org/Graphics/SVG/1.1/DTD/svg11.dtd">
<svg xmlns:dc="http://purl.org/dc/elements/1.1/" xmlns:xl="http://www.w3.org/1999/xlink" version="1.1" xmlns="http://www.w3.org/2000/svg" viewBox="33.730286 59.398055 297 261" width="297" height="261">
  <defs>
    <clipPath id="artboard_clip_path">
      <path d="M 33.730286 59.398055 L 330.7303 59.398055 L 330.7303 320.39806 L 33.730286 320.39806 Z"/>
    </clipPath>
  </defs>
  <metadata> Produced by OmniGraffle 7.8 
    <dc:date>2018-07-22 17:54:47 +0000</dc:date>
  </metadata>
  <g id="Laurel_Wreath_(2)" fill-opacity="1" stroke-dasharray="none" stroke="none" stroke-opacity="1" fill="none">
    <title>Laurel Wreath (2)</title>
    <g id="Laurel_Wreath_(2): Layer 2" clip-path="url(#artboard_clip_path)">
      <title>Layer 2</title>
      <g id="Group_293">
        <g id="Graphic_321">
          <title>path24</title>
          <path d="M 124.56836 96.26763 C 132.27657 79.15785 151.14522 70.03939 169.3408 74.63094 C 166.29626 83.4545 159.8587 90.69964 151.45456 94.76102 C 143.05042 98.8224 133.37363 99.36466 124.56836 96.26763 Z" fill="#f3f3f3"/>
          <path d="M 124.56836 96.26763 C 132.27657 79.15785 151.14522 70.03939 169.3408 74.63094 C 166.29626 83.4545 159.8587 90.69964 151.45456 94.76102 C 143.05042 98.8224 133.37363 99.36466 124.56836 96.26763 Z" stroke="black" stroke-linecap="round" stroke-linejoin="round" stroke-width="2"/>
        </g>
        <g id="Graphic_320">
          <title>path29</title>
          <path d="M 131.47127 250.38366 C 133.76196 261.30896 140.17638 270.9306 149.38025 277.24712 C 153.01773 271.88795 153.95 265.13976 151.90179 258.9951 C 149.85357 252.85045 145.05884 248.01126 138.93335 245.9064 C 130.76975 240.50055 124.50637 232.67133 121.02437 223.5202 C 114.52837 246.13663 127.04287 269.8483 149.38025 277.24712 C 139.67512 271.44087 133.09815 261.5754 131.47127 250.38366 Z" fill="#f3f3f3"/>
          <path d="M 131.47127 250.38366 C 133.76196 261.30896 140.17638 270.9306 149.38025 277.24712 C 153.01773 271.88795 153.95 265.13976 151.90179 258.9951 C 149.85357 252.85045 145.05884 248.01126 138.93335 245.9064 C 130.76975 240.50055 124.50637 232.67133 121.02437 223.5202 C 114.52837 246.13663 127.04287 269.8483 149.38025 277.24712 C 139.67512 271.44087 133.09815 261.5754 131.47127 250.38366 Z" stroke="black" stroke-linecap="round" stroke-linejoin="round" stroke-width="2"/>
        </g>
        <g id="Graphic_319">
          <title>path34</title>
          <path d="M 102.07963 224.9173 C 98.56405 232.6729 98.83546 242.32828 102.83741 251.8756 C 111.17235 244.7995 115.35747 235.6043 114.43571 226.39278 C 111.55557 218.52764 109.08835 210.63795 107.04238 202.7504 C 98.55337 206.2739 93.2112 213.71754 92.40406 223.14706 C 91.59692 232.57657 95.40452 243.0609 102.83741 251.8756 C 98.20545 242.2996 97.92717 232.39962 102.07963 224.9173 Z" fill="#f3f3f3"/>
          <path d="M 102.07963 224.9173 C 98.56405 232.6729 98.83546 242.32828 102.83741 251.8756 C 111.17235 244.7995 115.35747 235.6043 114.43571 226.39278 C 111.55557 218.52764 109.08835 210.63795 107.04238 202.7504 C 98.55337 206.2739 93.2112 213.71754 92.40406 223.14706 C 91.59692 232.57657 95.40452 243.0609 102.83741 251.8756 C 98.20545 242.2996 97.92717 232.39962 102.07963 224.9173 Z" stroke="black" stroke-linecap="round" stroke-linejoin="round" stroke-width="2"/>
        </g>
        <g id="Graphic_318">
          <title>path39</title>
          <path d="M 87.30972 195.22505 C 81.95166 199.61547 78.73644 207.61154 78.33254 217.55081 C 87.03431 216.33798 93.40083 211.1426 95.9762 203.15278 C 96.61802 195.1913 97.57547 187.43466 98.84531 179.90908 C 91.28751 178.152 84.68191 181.29415 80.74464 188.51919 C 76.80738 195.74422 75.92711 206.33894 78.33254 217.55081 C 78.27829 207.24526 81.57494 199.04669 87.30972 195.22505 Z" fill="#f3f3f3"/>
          <path d="M 87.30972 195.22505 C 81.95166 199.61547 78.73644 207.61154 78.33254 217.55081 C 87.03431 216.33798 93.40083 211.1426 95.9762 203.15278 C 96.61802 195.1913 97.57547 187.43466 98.84531 179.90908 C 91.28751 178.152 84.68191 181.29415 80.74464 188.51919 C 76.80738 195.74422 75.92711 206.33894 78.33254 217.55081 C 78.27829 207.24526 81.57494 199.04669 87.30972 195.22505 Z" stroke="black" stroke-linecap="round" stroke-linejoin="round" stroke-width="2"/>
        </g>
        <g id="Graphic_317">
          <title>path44</title>
          <path d="M 85.89426 163.23593 C 78.28664 165.72645 71.5873 172.69424 67.189326 182.69038 C 77.1888 184.68492 86.21936 181.74574 92.21546 174.54511 C 96.08665 166.65755 100.22143 159.0963 104.60582 151.88694 C 97.03975 147.2845 88.5646 148.03743 81.3826 153.95006 C 74.20061 159.8627 69.020875 170.35128 67.189326 182.69038 C 71.232 172.15005 78.10104 165.00576 85.89426 163.23593 Z" fill="#f3f3f3"/>
          <path d="M 85.89426 163.23593 C 78.28664 165.72645 71.5873 172.69424 67.189326 182.69038 C 77.1888 184.68492 86.21936 181.74574 92.21546 174.54511 C 96.08665 166.65755 100.22143 159.0963 104.60582 151.88694 C 97.03975 147.2845 88.5646 148.03743 81.3826 153.95006 C 74.20061 159.8627 69.020875 170.35128 67.189326 182.69038 C 71.232 172.15005 78.10104 165.00576 85.89426 163.23593 Z" stroke="black" stroke-linecap="round" stroke-linejoin="round" stroke-width="2"/>
        </g>
        <g id="Graphic_316">
          <title>path49</title>
          <path d="M 99.12248 131.11676 C 92.30929 130.72524 85.02265 133.91547 78.77733 140.02425 C 93.99181 145.21316 107.9734 140.78124 114.61202 128.66528 C 116.37407 125.83685 118.57829 123.6277 121.02376 122.2392 C 106.98907 116.9792 90.55207 123.89891 78.77733 140.02425 C 84.88254 133.40817 92.35369 130.13715 99.12248 131.11676 Z" fill="#f3f3f3"/>
          <path d="M 99.12248 131.11676 C 92.30929 130.72524 85.02265 133.91547 78.77733 140.02425 C 93.99181 145.21316 107.9734 140.78124 114.61202 128.66528 C 116.37407 125.83685 118.57829 123.6277 121.02376 122.2392 C 106.98907 116.9792 90.55207 123.89891 78.77733 140.02425 C 84.88254 133.40817 92.35369 130.13715 99.12248 131.11676 Z" stroke="black" stroke-linecap="round" stroke-linejoin="round" stroke-width="2"/>
        </g>
        <g id="Graphic_315">
          <title>path54</title>
          <path d="M 128.37628 108.67868 C 122.3669 105.44447 114.41471 105.25633 106.17285 108.15338 C 117.76892 119.28605 132.31355 121.17824 143.45061 113.00305 C 146.24292 111.1843 149.17425 110.11367 151.9774 109.88876 C 141.48063 99.19027 123.65925 98.51508 106.17285 108.15338 C 114.50213 104.73735 122.65568 104.93025 128.37628 108.67868 Z" fill="#f3f3f3"/>
          <path d="M 128.37628 108.67868 C 122.3669 105.44447 114.41471 105.25633 106.17285 108.15338 C 117.76892 119.28605 132.31355 121.17824 143.45061 113.00305 C 146.24292 111.1843 149.17425 110.11367 151.9774 109.88876 C 141.48063 99.19027 123.65925 98.51508 106.17285 108.15338 C 114.50213 104.73735 122.65568 104.93025 128.37628 108.67868 Z" stroke="black" stroke-linecap="round" stroke-linejoin="round" stroke-width="2"/>
        </g>
        <g id="Graphic_314">
          <title>path59</title>
          <path d="M 114.90529 84.90128 C 115.2968 91.71447 112.10658 99.00111 105.9978 105.24643 C 100.80889 90.03195 105.2408 76.05036 117.35676 69.41174 C 120.1852 67.64969 122.39435 65.44547 123.78285 63 C 129.04285 77.03469 122.12314 93.47169 105.9978 105.24643 C 112.61388 99.14122 115.8849 91.67007 114.90529 84.90128 Z" fill="#f3f3f3"/>
          <path d="M 114.90529 84.90128 C 115.2968 91.71447 112.10658 99.00111 105.9978 105.24643 C 100.80889 90.03195 105.2408 76.05036 117.35676 69.41174 C 120.1852 67.64969 122.39435 65.44547 123.78285 63 C 129.04285 77.03469 122.12314 93.47169 105.9978 105.24643 C 112.61388 99.14122 115.8849 91.67007 114.90529 84.90128 Z" stroke="black" stroke-linecap="round" stroke-linejoin="round" stroke-width="2"/>
        </g>
        <g id="Graphic_313">
          <title>path64</title>
          <path d="M 80.049735 113.32216 C 82.74789 119.59055 82.24223 127.52888 78.63788 135.48689 C 69.817225 125.20856 68.90792 112.88401 76.30731 103.89864 C 79.12366 99.20193 80.70296 94.32259 80.90124 89.70538 C 88.10356 93.76603 91.94833 100.99646 91.51935 109.67366 C 91.09036 118.35086 86.42604 127.69771 78.63788 135.48689 C 82.76686 127.48703 83.28532 119.34769 80.049735 113.32216 Z" fill="#f3f3f3"/>
          <path d="M 80.049735 113.32216 C 82.74789 119.59055 82.24223 127.52888 78.63788 135.48689 C 69.817225 125.20856 68.90792 112.88401 76.30731 103.89864 C 79.12366 99.20193 80.70296 94.32259 80.90124 89.70538 C 88.10356 93.76603 91.94833 100.99646 91.51935 109.67366 C 91.09036 118.35086 86.42604 127.69771 78.63788 135.48689 C 82.76686 127.48703 83.28532 119.34769 80.049735 113.32216 Z" stroke="black" stroke-linecap="round" stroke-linejoin="round" stroke-width="2"/>
        </g>
        <g id="Graphic_312">
          <title>path69</title>
          <path d="M 59.44072 155.66619 C 64.7908 162.8388 66.704595 170.72254 64.67999 177.24902 C 71.58183 165.59515 70.33718 153.29994 61.48992 145.73597 C 57.900776 141.59967 55.498185 137.0687 54.50114 132.55606 C 48.113363 137.8057 45.582555 145.59391 47.511804 154.0648 C 49.44105 162.53568 55.657574 170.93058 64.67999 177.24902 C 66.35313 170.63292 64.468525 162.8694 59.44072 155.66619 Z" fill="#f3f3f3"/>
          <path d="M 59.44072 155.66619 C 64.7908 162.8388 66.704595 170.72254 64.67999 177.24902 C 71.58183 165.59515 70.33718 153.29994 61.48992 145.73597 C 57.900776 141.59967 55.498185 137.0687 54.50114 132.55606 C 48.113363 137.8057 45.582555 145.59391 47.511804 154.0648 C 49.44105 162.53568 55.657574 170.93058 64.67999 177.24902 C 66.35313 170.63292 64.468525 162.8694 59.44072 155.66619 Z" stroke="black" stroke-linecap="round" stroke-linejoin="round" stroke-width="2"/>
        </g>
        <g id="Graphic_311">
          <title>path74</title>
          <path d="M 56.71722 204.4624 C 66.63296 208.74232 73.38819 215.84888 75.20989 223.91684 C 75.39076 207.52176 66.67419 195.38638 52.870104 192.81492 C 46.63156 190.6507 41.393913 187.35578 37.63421 183.2303 C 34.128943 192.59814 36.181775 202.29272 43.303575 210.00413 C 50.425376 217.71554 61.9784 222.75322 75.20989 223.91684 C 72.96691 215.9677 66.314735 208.96957 56.71722 204.4624 Z" fill="#f3f3f3"/>
          <path d="M 56.71722 204.4624 C 66.63296 208.74232 73.38819 215.84888 75.20989 223.91684 C 75.39076 207.52176 66.67419 195.38638 52.870104 192.81492 C 46.63156 190.6507 41.393913 187.35578 37.63421 183.2303 C 34.128943 192.59814 36.181775 202.29272 43.303575 210.00413 C 50.425376 217.71554 61.9784 222.75322 75.20989 223.91684 C 72.96691 215.9677 66.314735 208.96957 56.71722 204.4624 Z" stroke="black" stroke-linecap="round" stroke-linejoin="round" stroke-width="2"/>
        </g>
        <g id="Graphic_310">
          <title>path79</title>
          <path d="M 78.42586 245.5256 C 89.22136 245.21396 98.34704 248.7998 103.40773 255.342 C 96.64279 240.40656 83.61426 233.09194 70.01676 236.59528 C 63.44808 237.27034 57.30867 236.49766 52.15772 234.34763 C 52.939884 244.31916 58.89749 252.23787 68.61102 256.21698 C 78.32454 260.1961 90.92415 259.87926 103.40773 255.342 C 98.01544 249.08555 89.02899 245.5544 78.42586 245.5256 Z" fill="#f3f3f3"/>
          <path d="M 78.42586 245.5256 C 89.22136 245.21396 98.34704 248.7998 103.40773 255.342 C 96.64279 240.40656 83.61426 233.09194 70.01676 236.59528 C 63.44808 237.27034 57.30867 236.49766 52.15772 234.34763 C 52.939884 244.31916 58.89749 252.23787 68.61102 256.21698 C 78.32454 260.1961 90.92415 259.87926 103.40773 255.342 C 98.01544 249.08555 89.02899 245.5544 78.42586 245.5256 Z" stroke="black" stroke-linecap="round" stroke-linejoin="round" stroke-width="2"/>
        </g>
        <g id="Graphic_309">
          <title>path84</title>
          <path d="M 114.06578 281.02794 C 126.15155 277.10863 137.57651 278.11192 145.34193 283.77448 C 133.01367 269.2693 116.01223 265.3801 101.76812 273.80665 C 94.56436 276.7363 87.3906 277.89947 80.90064 277.19017 C 84.91586 288.1125 94.12809 295.0208 106.34202 296.26875 C 118.55596 297.5167 132.67768 292.9926 145.34193 283.77448 C 137.29199 278.542 126.04134 277.554 114.06578 281.02794 Z" fill="#f3f3f3"/>
          <path d="M 114.06578 281.02794 C 126.15155 277.10863 137.57651 278.11192 145.34193 283.77448 C 133.01367 269.2693 116.01223 265.3801 101.76812 273.80665 C 94.56436 276.7363 87.3906 277.89947 80.90064 277.19017 C 84.91586 288.1125 94.12809 295.0208 106.34202 296.26875 C 118.55596 297.5167 132.67768 292.9926 145.34193 283.77448 C 137.29199 278.542 126.04134 277.554 114.06578 281.02794 Z" stroke="black" stroke-linecap="round" stroke-linejoin="round" stroke-width="2"/>
        </g>
        <g id="Graphic_308">
          <title>path89</title>
          <path d="M 256.83066 308.59115 C 203.50084 303.76603 152.5833 284.12227 109.83113 251.8794 C 85.16447 234.35357 70.4433 206.02464 70.27882 175.76624 C 77.10981 135.25866 104.96163 101.43732 143.40714 86.96425 C 101.59199 97.50501 70.32222 132.31475 64.309164 175.01672 C 63.69615 209.16515 80.58615 241.25616 109.0816 260.08435 C 153.53761 290.72755 204.7357 310.1828 258.32307 316.7961 C 259.20005 313.9818 258.64248 310.9164 256.83066 308.59115 Z" fill="#f3f3f3"/>
          <path d="M 256.83066 308.59115 C 203.50084 303.76603 152.5833 284.12227 109.83113 251.8794 C 85.16447 234.35357 70.4433 206.02464 70.27882 175.76624 C 77.10981 135.25866 104.96163 101.43732 143.40714 86.96425 C 101.59199 97.50501 70.32222 132.31475 64.309164 175.01672 C 63.69615 209.16515 80.58615 241.25616 109.0816 260.08435 C 153.53761 290.72755 204.7357 310.1828 258.32307 316.7961 C 259.20005 313.9818 258.64248 310.9164 256.83066 308.59115 Z" stroke="black" stroke-linecap="round" stroke-linejoin="round" stroke-width="2"/>
        </g>
        <g id="Graphic_307">
          <title>path97</title>
          <path d="M 239.89221 96.26763 C 232.184 79.15785 213.31535 70.03939 195.11977 74.63094 C 198.16432 83.4545 204.60187 90.69964 213.006 94.76102 C 221.41015 98.8224 231.08694 99.36466 239.89221 96.26763 Z" fill="#f3f3f3"/>
          <path d="M 239.89221 96.26763 C 232.184 79.15785 213.31535 70.03939 195.11977 74.63094 C 198.16432 83.4545 204.60187 90.69964 213.006 94.76102 C 221.41015 98.8224 231.08694 99.36466 239.89221 96.26763 Z" stroke="black" stroke-linecap="round" stroke-linejoin="round" stroke-width="2"/>
        </g>
        <g id="Graphic_306">
          <title>path102</title>
          <path d="M 232.9893 250.38366 C 230.69862 261.30896 224.2842 270.9306 215.08032 277.24712 C 211.44284 271.88795 210.51057 265.13976 212.5588 258.9951 C 214.607 252.85045 219.40174 248.01126 225.52723 245.9064 C 233.69082 240.50055 239.9542 232.67133 243.4362 223.5202 C 249.9322 246.13663 237.4177 269.8483 215.08032 277.24712 C 224.78545 271.44087 231.36243 261.5754 232.9893 250.38366 Z" fill="#f3f3f3"/>
          <path d="M 232.9893 250.38366 C 230.69862 261.30896 224.2842 270.9306 215.08032 277.24712 C 211.44284 271.88795 210.51057 265.13976 212.5588 258.9951 C 214.607 252.85045 219.40174 248.01126 225.52723 245.9064 C 233.69082 240.50055 239.9542 232.67133 243.4362 223.5202 C 249.9322 246.13663 237.4177 269.8483 215.08032 277.24712 C 224.78545 271.44087 231.36243 261.5754 232.9893 250.38366 Z" stroke="black" stroke-linecap="round" stroke-linejoin="round" stroke-width="2"/>
        </g>
        <g id="Graphic_305">
          <title>path107</title>
          <path d="M 262.38095 224.9173 C 265.89652 232.6729 265.6251 242.32828 261.62316 251.8756 C 253.28822 244.7995 249.1031 235.6043 250.02486 226.39278 C 252.905 218.52764 255.37223 210.63795 257.4182 202.7504 C 265.9072 206.2739 271.24937 213.71754 272.0565 223.14706 C 272.86365 232.57657 269.05606 243.0609 261.62316 251.8756 C 266.25512 242.2996 266.5334 232.39962 262.38095 224.9173 Z" fill="#f3f3f3"/>
          <path d="M 262.38095 224.9173 C 265.89652 232.6729 265.6251 242.32828 261.62316 251.8756 C 253.28822 244.7995 249.1031 235.6043 250.02486 226.39278 C 252.905 218.52764 255.37223 210.63795 257.4182 202.7504 C 265.9072 206.2739 271.24937 213.71754 272.0565 223.14706 C 272.86365 232.57657 269.05606 243.0609 261.62316 251.8756 C 266.25512 242.2996 266.5334 232.39962 262.38095 224.9173 Z" stroke="black" stroke-linecap="round" stroke-linejoin="round" stroke-width="2"/>
        </g>
        <g id="Graphic_304">
          <title>path112</title>
          <path d="M 277.15085 195.22505 C 282.50892 199.61547 285.72413 207.61154 286.12803 217.55081 C 277.42626 216.33798 271.05974 211.1426 268.48437 203.15278 C 267.84256 195.1913 266.8851 187.43466 265.61526 179.90908 C 273.17306 178.152 279.77867 181.29415 283.71593 188.51919 C 287.6532 195.74422 288.53346 206.33894 286.12803 217.55081 C 286.18228 207.24526 282.88564 199.04669 277.15085 195.22505 Z" fill="#f3f3f3"/>
          <path d="M 277.15085 195.22505 C 282.50892 199.61547 285.72413 207.61154 286.12803 217.55081 C 277.42626 216.33798 271.05974 211.1426 268.48437 203.15278 C 267.84256 195.1913 266.8851 187.43466 265.61526 179.90908 C 273.17306 178.152 279.77867 181.29415 283.71593 188.51919 C 287.6532 195.74422 288.53346 206.33894 286.12803 217.55081 C 286.18228 207.24526 282.88564 199.04669 277.15085 195.22505 Z" stroke="black" stroke-linecap="round" stroke-linejoin="round" stroke-width="2"/>
        </g>
        <g id="Graphic_303">
          <title>path117</title>
          <path d="M 278.56632 163.23593 C 286.17394 165.72645 292.87327 172.69424 297.27125 182.69038 C 287.27177 184.68492 278.2412 181.74574 272.2451 174.54511 C 268.37392 166.65755 264.23914 159.0963 259.85475 151.88694 C 267.42083 147.2845 275.89598 148.03743 283.07797 153.95006 C 290.25996 159.8627 295.4397 170.35128 297.27125 182.69038 C 293.22857 172.15005 286.35954 165.00576 278.56632 163.23593 Z" fill="#f3f3f3"/>
          <path d="M 278.56632 163.23593 C 286.17394 165.72645 292.87327 172.69424 297.27125 182.69038 C 287.27177 184.68492 278.2412 181.74574 272.2451 174.54511 C 268.37392 166.65755 264.23914 159.0963 259.85475 151.88694 C 267.42083 147.2845 275.89598 148.03743 283.07797 153.95006 C 290.25996 159.8627 295.4397 170.35128 297.27125 182.69038 C 293.22857 172.15005 286.35954 165.00576 278.56632 163.23593 Z" stroke="black" stroke-linecap="round" stroke-linejoin="round" stroke-width="2"/>
        </g>
        <g id="Graphic_302">
          <title>path122</title>
          <path d="M 265.3381 131.11676 C 272.1513 130.72524 279.43792 133.91547 285.68325 140.02425 C 270.46876 145.21316 256.48718 140.78124 249.84856 128.66528 C 248.0865 125.83685 245.88228 123.6277 243.4368 122.2392 C 257.4715 116.9792 273.9085 123.89891 285.68325 140.02425 C 279.57803 133.40817 272.10688 130.13715 265.3381 131.11676 Z" fill="#f3f3f3"/>
          <path d="M 265.3381 131.11676 C 272.1513 130.72524 279.43792 133.91547 285.68325 140.02425 C 270.46876 145.21316 256.48718 140.78124 249.84856 128.66528 C 248.0865 125.83685 245.88228 123.6277 243.4368 122.2392 C 257.4715 116.9792 273.9085 123.89891 285.68325 140.02425 C 279.57803 133.40817 272.10688 130.13715 265.3381 131.11676 Z" stroke="black" stroke-linecap="round" stroke-linejoin="round" stroke-width="2"/>
        </g>
        <g id="Graphic_301">
          <title>path127</title>
          <path d="M 236.0843 108.67868 C 242.09367 105.44447 250.04586 105.25633 258.28773 108.15338 C 246.69165 119.28605 232.14702 121.17824 221.00996 113.00305 C 218.21765 111.1843 215.28632 110.11367 212.48317 109.88876 C 222.97995 99.19027 240.80133 98.51508 258.28773 108.15338 C 249.95845 104.73735 241.8049 104.93025 236.0843 108.67868 Z" fill="#f3f3f3"/>
          <path d="M 236.0843 108.67868 C 242.09367 105.44447 250.04586 105.25633 258.28773 108.15338 C 246.69165 119.28605 232.14702 121.17824 221.00996 113.00305 C 218.21765 111.1843 215.28632 110.11367 212.48317 109.88876 C 222.97995 99.19027 240.80133 98.51508 258.28773 108.15338 C 249.95845 104.73735 241.8049 104.93025 236.0843 108.67868 Z" stroke="black" stroke-linecap="round" stroke-linejoin="round" stroke-width="2"/>
        </g>
        <g id="Graphic_300">
          <title>path132</title>
          <path d="M 249.55528 84.90128 C 249.16377 91.71447 252.354 99.00111 258.46278 105.24643 C 263.6517 90.03195 259.21977 76.05036 247.1038 69.41174 C 244.27538 67.64969 242.06622 65.44547 240.67772 63 C 235.41773 77.03469 242.33744 93.47169 258.46278 105.24643 C 251.8467 99.14122 248.57568 91.67007 249.55528 84.90128 Z" fill="#f3f3f3"/>
          <path d="M 249.55528 84.90128 C 249.16377 91.71447 252.354 99.00111 258.46278 105.24643 C 263.6517 90.03195 259.21977 76.05036 247.1038 69.41174 C 244.27538 67.64969 242.06622 65.44547 240.67772 63 C 235.41773 77.03469 242.33744 93.47169 258.46278 105.24643 C 251.8467 99.14122 248.57568 91.67007 249.55528 84.90128 Z" stroke="black" stroke-linecap="round" stroke-linejoin="round" stroke-width="2"/>
        </g>
        <g id="Graphic_299">
          <title>path137</title>
          <path d="M 284.41084 113.32216 C 281.71268 119.59055 282.21834 127.52888 285.8227 135.48689 C 294.64335 125.20856 295.55265 112.88401 288.15327 103.89864 C 285.3369 99.20193 283.7576 94.32259 283.55933 89.70538 C 276.357 93.76603 272.51224 100.99646 272.94123 109.67366 C 273.3702 118.35086 278.03453 127.69771 285.8227 135.48689 C 281.6937 127.48703 281.17525 119.34769 284.41084 113.32216 Z" fill="#f3f3f3"/>
          <path d="M 284.41084 113.32216 C 281.71268 119.59055 282.21834 127.52888 285.8227 135.48689 C 294.64335 125.20856 295.55265 112.88401 288.15327 103.89864 C 285.3369 99.20193 283.7576 94.32259 283.55933 89.70538 C 276.357 93.76603 272.51224 100.99646 272.94123 109.67366 C 273.3702 118.35086 278.03453 127.69771 285.8227 135.48689 C 281.6937 127.48703 281.17525 119.34769 284.41084 113.32216 Z" stroke="black" stroke-linecap="round" stroke-linejoin="round" stroke-width="2"/>
        </g>
        <g id="Graphic_298">
          <title>path142</title>
          <path d="M 305.01985 155.66619 C 299.66977 162.8388 297.75598 170.72254 299.7806 177.24902 C 292.87874 165.59515 294.1234 153.29994 302.97065 145.73597 C 306.5598 141.59967 308.9624 137.0687 309.95943 132.55606 C 316.3472 137.8057 318.878 145.59391 316.94877 154.0648 C 315.01952 162.53568 308.803 170.93058 299.7806 177.24902 C 298.10744 170.63292 299.99205 162.8694 305.01985 155.66619 Z" fill="#f3f3f3"/>
          <path d="M 305.01985 155.66619 C 299.66977 162.8388 297.75598 170.72254 299.7806 177.24902 C 292.87874 165.59515 294.1234 153.29994 302.97065 145.73597 C 306.5598 141.59967 308.9624 137.0687 309.95943 132.55606 C 316.3472 137.8057 318.878 145.59391 316.94877 154.0648 C 315.01952 162.53568 308.803 170.93058 299.7806 177.24902 C 298.10744 170.63292 299.99205 162.8694 305.01985 155.66619 Z" stroke="black" stroke-linecap="round" stroke-linejoin="round" stroke-width="2"/>
        </g>
        <g id="Graphic_297">
          <title>path147</title>
          <path d="M 307.74336 204.4624 C 297.8276 208.74232 291.07238 215.84888 289.25068 223.91684 C 289.0698 207.52176 297.78638 195.38638 311.59047 192.81492 C 317.829 190.6507 323.06666 187.35578 326.82636 183.2303 C 330.33163 192.59814 328.2788 202.29272 321.157 210.00413 C 314.0352 217.71554 302.48218 222.75322 289.25068 223.91684 C 291.49367 215.9677 298.14584 208.96957 307.74336 204.4624 Z" fill="#f3f3f3"/>
          <path d="M 307.74336 204.4624 C 297.8276 208.74232 291.07238 215.84888 289.25068 223.91684 C 289.0698 207.52176 297.78638 195.38638 311.59047 192.81492 C 317.829 190.6507 323.06666 187.35578 326.82636 183.2303 C 330.33163 192.59814 328.2788 202.29272 321.157 210.00413 C 314.0352 217.71554 302.48218 222.75322 289.25068 223.91684 C 291.49367 215.9677 298.14584 208.96957 307.74336 204.4624 Z" stroke="black" stroke-linecap="round" stroke-linejoin="round" stroke-width="2"/>
        </g>
        <g id="Graphic_296">
          <title>path152</title>
          <path d="M 286.0347 245.5256 C 275.23922 245.21396 266.11354 248.7998 261.05284 255.342 C 267.81778 240.40656 280.8463 233.09194 294.4438 236.59528 C 301.0125 237.27034 307.1519 236.49766 312.30286 234.34763 C 311.5207 244.31916 305.56308 252.23787 295.84956 256.21698 C 286.13603 260.1961 273.53642 259.87926 261.05284 255.342 C 266.44513 249.08555 275.4316 245.5544 286.0347 245.5256 Z" fill="#f3f3f3"/>
          <path d="M 286.0347 245.5256 C 275.23922 245.21396 266.11354 248.7998 261.05284 255.342 C 267.81778 240.40656 280.8463 233.09194 294.4438 236.59528 C 301.0125 237.27034 307.1519 236.49766 312.30286 234.34763 C 311.5207 244.31916 305.56308 252.23787 295.84956 256.21698 C 286.13603 260.1961 273.53642 259.87926 261.05284 255.342 C 266.44513 249.08555 275.4316 245.5544 286.0347 245.5256 Z" stroke="black" stroke-linecap="round" stroke-linejoin="round" stroke-width="2"/>
        </g>
        <g id="Graphic_295">
          <title>path157</title>
          <path d="M 250.3948 281.02794 C 238.30903 277.10863 226.88406 278.11192 219.11864 283.77448 C 231.4469 269.2693 248.44835 265.3801 262.69245 273.80665 C 269.8962 276.7363 277.06998 277.89947 283.55993 277.19017 C 279.5447 288.1125 270.3325 295.0208 258.11855 296.26875 C 245.90461 297.5167 231.7829 292.9926 219.11864 283.77448 C 227.16858 278.542 238.41924 277.554 250.3948 281.02794 Z" fill="#f3f3f3"/>
          <path d="M 250.3948 281.02794 C 238.30903 277.10863 226.88406 278.11192 219.11864 283.77448 C 231.4469 269.2693 248.44835 265.3801 262.69245 273.80665 C 269.8962 276.7363 277.06998 277.89947 283.55993 277.19017 C 279.5447 288.1125 270.3325 295.0208 258.11855 296.26875 C 245.90461 297.5167 231.7829 292.9926 219.11864 283.77448 C 227.16858 278.542 238.41924 277.554 250.3948 281.02794 Z" stroke="black" stroke-linecap="round" stroke-linejoin="round" stroke-width="2"/>
        </g>
        <g id="Graphic_294">
          <title>path162</title>
          <path d="M 107.62992 308.59115 C 160.95974 303.76603 211.87727 284.12227 254.62944 251.8794 C 279.2961 234.35357 294.01727 206.02464 294.18175 175.76624 C 287.35077 135.25866 259.49894 101.43732 221.05343 86.96425 C 262.86858 97.50501 294.13835 132.31475 300.1514 175.01672 C 300.76443 209.16515 283.87442 241.25616 255.37897 260.08435 C 210.92296 290.72755 159.72487 310.1828 106.1375 316.7961 C 105.26052 313.9818 105.8181 310.9164 107.62992 308.59115 Z" fill="#f3f3f3"/>
          <path d="M 107.62992 308.59115 C 160.95974 303.76603 211.87727 284.12227 254.62944 251.8794 C 279.2961 234.35357 294.01727 206.02464 294.18175 175.76624 C 287.35077 135.25866 259.49894 101.43732 221.05343 86.96425 C 262.86858 97.50501 294.13835 132.31475 300.1514 175.01672 C 300.76443 209.16515 283.87442 241.25616 255.37897 260.08435 C 210.92296 290.72755 159.72487 310.1828 106.1375 316.7961 C 105.26052 313.9818 105.8181 310.9164 107.62992 308.59115 Z" stroke="black" stroke-linecap="round" stroke-linejoin="round" stroke-width="2"/>
        </g>
      </g>
    </g>
  </g>
</svg>
