<svg xmlns="http://www.w3.org/2000/svg" viewBox="0 0 100 125" x="0px" y="0px"><title>Artboard 1</title><path d="M56.33,21.55,56,21.48l-.11,0A28.34,28.34,0,0,0,39.6,23l-.36.15-.52.22A29,29,0,0,0,27,32.64c-6.75,8.87-7.83,20.55-3.09,29.81a29.21,29.21,0,1,0,32.44-40.9Zm12,7.62c10.18,10.18,9.71,27.23-1.07,38s-27.82,11.25-38,1.07a24.73,24.73,0,0,1-3.94-5.14A28.2,28.2,0,0,1,58.14,23,24.8,24.8,0,0,1,68.34,29.17Zm2,40.9A28.25,28.25,0,0,1,33.6,72.81c10.54,6.29,24.82,4.57,34.35-5C78,57.79,79.37,42.43,71.79,31.77A28.24,28.24,0,0,1,70.32,70.07Z"/><text x="0" y="115" fill="#000000" font-size="5px" font-weight="bold" font-family="'Helvetica Neue', Helvetica, Arial-Unicode, Arial, Sans-serif">Created by W. X. Chee</text><text x="0" y="120" fill="#000000" font-size="5px" font-weight="bold" font-family="'Helvetica Neue', Helvetica, Arial-Unicode, Arial, Sans-serif">from the Noun Project</text></svg>